# xmcd
#
# Track frame offsets: 
#        150
#        12342
#        25099
#        39629
#        52300
#        65039
#        77935
#        91271
#        104827
#        120162
#        132518
#        147392
#        161326
#        175967
#        190301
#        203255
#
# Disc length: 2881 seconds
#
# Revision: 1
# Processed by: cddbd v1.5.2PL0 Copyright (c) Steve Scherf et al.
# Submitted via: ExactAudioCopy v0.95b3
#
DISCID=e10b3f10
DTITLE=Big Bill Broonzy - Big Bill Blues
DYEAR=2003
DGENRE=Blues
TTITLE0=Mississippi River Blues
TTITLE1=It's Your Time Now
TTITLE2=I Can Make You Satisfied
TTITLE3=Long Tall Mama
TTITLE4=W.P.A. Rag
TTITLE5=How You Want It Done
TTITLE6=Big Billy Blues
TTITLE7=Come Home Early
TTITLE8=Friendless Blues
TTITLE9=Hattie Blues
TTITLE10=Good Jelly
TTITLE11=Worrying You Off My Mind
TTITLE12=Southern Flood Blues
TTITLE13=Rising Sunshine On
TTITLE14=Too Too Train Blues
TTITLE15=Bull Cow Blues
EXTD=Our World Inc - 804558331124
EXTT0=
EXTT1=
EXTT2=
EXTT3=
EXTT4=
EXTT5=
EXTT6=
EXTT7=
EXTT8=
EXTT9=
EXTT10=
EXTT11=
EXTT12=
EXTT13=
EXTT14=
EXTT15=
PLAYORDER=
